<?xml version="1.0" encoding="UTF-8"?>
<svg width="32" height="32" viewBox="0 0 32 32" fill="none" xmlns="http://www.w3.org/2000/svg">
  <!-- LOCKDN Favicon - Wild-Type Axolotl with PINK Headphones -->
  
  <!-- Head -->
  <ellipse cx="16" cy="18" rx="12" ry="10" fill="#5A6857"/>
  
  <!-- Gold speckles -->
  <circle cx="10" cy="14" r="1.5" fill="#C9A227" opacity="0.7"/>
  <circle cx="22" cy="14" r="1.5" fill="#C9A227" opacity="0.7"/>
  <circle cx="16" cy="12" r="1" fill="#C9A227" opacity="0.7"/>
  
  <!-- Left gills -->
  <path d="M4 14 Q0 10 1 5" stroke="#6B7A68" stroke-width="2.5" stroke-linecap="round" fill="none"/>
  <path d="M3 17 Q-1 15 0 10" stroke="#6B7A68" stroke-width="2" stroke-linecap="round" fill="none"/>
  
  <!-- Right gills -->
  <path d="M28 14 Q32 10 31 5" stroke="#6B7A68" stroke-width="2.5" stroke-linecap="round" fill="none"/>
  <path d="M29 17 Q33 15 32 10" stroke="#6B7A68" stroke-width="2" stroke-linecap="round" fill="none"/>
  
  <!-- PINK Headphone band -->
  <path d="M5 16 Q5 4 16 3 Q27 4 27 16" stroke="#FF7A9A" stroke-width="2.5" stroke-linecap="round" fill="none"/>
  
  <!-- Left ear cup - PINK -->
  <rect x="2" y="13" width="6" height="7" rx="2" fill="#FF6B8A"/>
  
  <!-- Right ear cup - PINK -->
  <rect x="24" y="13" width="6" height="7" rx="2" fill="#FF6B8A"/>
  
  <!-- Eyes -->
  <circle cx="12" cy="17" r="3" fill="#1a1a1a"/>
  <circle cx="20" cy="17" r="3" fill="#1a1a1a"/>
  
  <!-- Golden eye rings -->
  <circle cx="12" cy="17" r="3" stroke="#C9A227" stroke-width="1" fill="none"/>
  <circle cx="20" cy="17" r="3" stroke="#C9A227" stroke-width="1" fill="none"/>
  
  <!-- Eye shine -->
  <circle cx="13" cy="16" r="1" fill="#FFFFFF"/>
  <circle cx="21" cy="16" r="1" fill="#FFFFFF"/>
  
  <!-- Smile -->
  <path d="M13 22 Q16 24 19 22" stroke="#4A3C2E" stroke-width="1.5" stroke-linecap="round" fill="none"/>
</svg>
